<?xml version="1.0" encoding="utf-8"?>
<svg width="192.05762px" height="29.193848px" viewBox="0 0 192.05762 29.193848" version="1.1" xmlns:xlink="http://www.w3.org/1999/xlink" xmlns="http://www.w3.org/2000/svg">
  <g id="Calque_2">
    <g id="Calque_1-2">
      <path d="M44.4252 15.2003C44.4252 15.5168 44.469 15.831 44.5252 16.1404L44.5252 14.2603C44.469 14.572 44.4252 14.8838 44.4252 15.2003L44.4252 15.2003Z" id="Shape" fill="none" fill-rule="evenodd" stroke="none" />
      <path d="M119.794 2.42038L114.408 2.42038L110.108 16.5284L104.396 2.42038L99.4245 2.42038L101.436 7.43481L97.5468 17.1114L92.5562 2.42038L86.6874 2.42038L96.9042 28.83L103.951 13.7058L109.989 28.761L119.794 2.42038L119.794 2.42038Z" id="Polygon" fill="#1D1D1B" fill-rule="evenodd" stroke="none" />
      <path d="M52.6307 27.6062L46.7143 18.3723C47.4887 17.947 48.1777 17.3822 48.7467 16.7064C49.4386 15.8749 49.9558 14.9125 50.2675 13.8767C50.5728 12.8688 50.7292 11.8217 50.7315 10.7685C50.75 9.55802 50.5276 8.35586 50.0771 7.23207C49.6539 6.20187 49.003 5.28083 48.1732 4.53804C47.2631 3.75152 46.1988 3.16383 45.0484 2.81262C43.6697 2.38856 42.233 2.18376 40.7907 2.20569L33.0918 2.20569L33.0918 27.6062L38.0896 27.6062L38.0896 19.536L41.4214 19.536L46.7976 27.6062L52.6307 27.6062ZM38.0965 7.03895L41.6878 7.03895C42.4152 7.00317 43.1395 7.15737 43.7892 7.48637C44.2651 7.74663 44.6634 8.12851 44.9435 8.59302C45.1836 8.9927 45.3535 9.43059 45.4456 9.88768C45.5178 10.2339 45.5584 10.586 45.567 10.9396C45.5612 11.3433 45.4971 11.7441 45.3766 12.1295C45.2374 12.5718 45.0224 12.9865 44.7412 13.3552C44.4281 13.7683 44.0199 14.0998 43.5512 14.3214C42.955 14.5951 42.303 14.7255 41.6473 14.7022L38.0965 14.7022L38.0965 7.03895Z" id="Shape" fill="#1D1D1B" fill-rule="evenodd" stroke="none" />
      <path d="M141.158 16.2733C140.37 15.4022 139.409 14.7051 138.336 14.2266C139.065 13.7808 139.701 13.1981 140.209 12.5107C140.98 11.4683 141.365 10.1626 141.365 8.59342C141.365 6.47532 140.583 4.88159 139.019 3.81223C137.454 2.74287 135.348 2.20739 132.7 2.2058L125.244 2.2058L125.244 27.6063L133.702 27.6063C134.808 27.6098 135.909 27.4763 136.982 27.2089C138.004 26.9625 138.972 26.5301 139.838 25.9333C140.684 25.34 141.372 24.5482 141.841 23.6272C142.367 22.5352 142.622 21.3328 142.584 20.1216C142.611 18.705 142.102 17.3305 141.158 16.2733L141.158 16.2733ZM130.251 7.03951L132.943 7.03951C133.933 7.03951 134.721 7.25767 135.308 7.69398C135.894 8.13188 136.189 8.78873 136.189 9.66215C136.194 10.4033 135.941 11.1232 135.475 11.6993C134.999 12.2991 134.268 12.5981 133.283 12.5966L130.251 12.5966L130.251 7.03951ZM136.879 21.728C136.509 22.171 136.016 22.4953 135.463 22.661C134.816 22.8633 134.14 22.9621 133.462 22.9537L130.251 22.9537L130.251 17.43L133.107 17.43C133.798 17.4273 134.487 17.5023 135.161 17.6537C135.756 17.7732 136.309 18.0474 136.765 18.4486C137.179 18.827 137.386 19.3862 137.386 20.1145C137.412 20.6953 137.233 21.2667 136.879 21.728L136.879 21.728Z" id="Shape" fill="#1D1D1B" fill-rule="evenodd" stroke="none" />
      <path d="M163.874 27.6065L169.685 27.6065L158.224 1.18979L157.948 1.18979L146.474 27.6065L151.41 27.6065L153.481 22.635L161.915 22.635L163.874 27.6065ZM155.235 18.425L157.815 12.2373L160.254 18.425L155.235 18.425Z" id="Shape" fill="#1D1D1B" fill-rule="evenodd" stroke="none" />
      <path d="M175.115 2.2058L180.113 2.2058L180.113 22.7799L192.057 22.7799L192.057 27.6063L175.115 27.6063L175.115 2.2058Z" id="Shape" fill="#1D1D1B" fill-rule="evenodd" stroke="none" />
      <path d="M55.5776 15.2951C55.5679 13.4599 55.934 11.6424 56.6534 9.95435C57.3588 8.29115 58.3713 6.77571 59.6377 5.48729C60.9048 4.19396 62.4082 3.15588 64.0666 2.42939C67.5099 0.947364 71.4113 0.947366 74.8546 2.42939C76.5211 3.1618 78.036 4.19896 79.3217 5.48754C80.6085 6.7706 81.6399 8.2865 82.3608 9.95459C83.0918 11.6397 83.4646 13.4583 83.4555 15.2951C83.4693 17.1546 83.0965 18.9967 82.3608 20.7046C81.6463 22.365 80.6139 23.8696 79.3217 25.1336C78.0337 26.4005 76.5181 27.413 74.8546 28.1179C71.4017 29.5524 67.5196 29.5524 64.0666 28.1179C60.7262 26.7038 58.0674 24.045 56.6533 20.7045C55.9293 18.9937 55.5633 17.1527 55.5776 15.2951L55.5776 15.2951ZM61.137 15.2952C61.1158 17.5964 62.0015 19.8133 63.6026 21.4663C65.1845 23.1153 67.3793 24.0348 69.6642 24.0056C71.8884 24.0283 74.0174 23.1052 75.5211 21.4662C76.2686 20.6548 76.86 19.7125 77.2655 18.6865C78.1097 16.4835 78.1029 14.045 77.2465 11.8467C76.8325 10.8097 76.2288 9.85899 75.4664 9.0432C74.7221 8.24721 73.8232 7.61151 72.8247 7.17499C70.7154 6.28641 68.3369 6.28641 66.2276 7.17499C65.2165 7.61134 64.3036 8.24669 63.5431 9.04321C62.7731 9.85125 62.1684 10.802 61.763 11.842C61.3375 12.943 61.1251 14.1148 61.1371 15.2952L61.137 15.2952Z" id="Shape" fill="#1D1D1B" fill-rule="evenodd" stroke="none" />
      <path d="M14.0767 22.7734L14.0767 27.726C14.598 27.6973 15.1175 27.6417 15.6331 27.5594L15.6331 22.6092C15.1197 22.7068 14.5991 22.7617 14.0767 22.7734L14.0767 22.7734Z" id="Shape" fill="none" fill-rule="evenodd" stroke="none" />
      <path d="M22.9611 12.3232L24.5175 12.3232L24.5175 27.376L22.9611 27.376L22.9611 12.3232Z" id="Rectangle" fill="none" fill-rule="evenodd" stroke="none" />
      <path d="M11.8665 22.628L11.8665 27.7091C12.2616 27.7377 12.6662 27.7543 13.0803 27.7543C13.1969 27.7543 13.3064 27.7543 13.4206 27.7543L13.4206 22.7756C12.8995 22.7683 12.3798 22.719 11.8666 22.628L11.8665 22.628Z" id="Shape" fill="none" fill-rule="evenodd" stroke="none" />
      <path d="M25.172 12.3232L26.3881 12.3232L26.3881 27.376L25.172 27.376L25.172 12.3232Z" id="Rectangle" fill="none" fill-rule="evenodd" stroke="none" />
      <path d="M9.6525 21.847L9.6525 27.3969C10.1665 27.5083 10.6861 27.5925 11.2089 27.6492L11.2089 22.4777C10.666 22.3329 10.1431 22.121 9.65251 21.847L9.6525 21.847Z" id="Shape" fill="none" fill-rule="evenodd" stroke="none" />
      <path d="M16.2907 12.3232L17.8805 12.3232L17.8805 16.457L16.2907 16.457L16.2907 12.3232Z" id="Rectangle" fill="none" fill-rule="evenodd" stroke="none" />
      <path d="M20.7478 12.3232L20.7478 24.6296C21.0285 24.2306 21.2678 23.8039 21.4618 23.3563L22.0282 27.3688L22.3043 27.3688L22.3043 12.3232L20.7478 12.3232Z" id="Shape" fill="none" fill-rule="evenodd" stroke="none" />
      <path d="M14.4078 12.3232L15.6334 12.3232L15.6334 16.457L14.4078 16.457L14.4078 12.3232Z" id="Rectangle" fill="none" fill-rule="evenodd" stroke="none" />
      <path d="M18.5346 21.2308L18.5346 26.6094C19.1111 26.2945 19.6359 25.8932 20.091 25.4194L20.091 18.8343C19.7828 19.7517 19.2473 20.5761 18.5346 21.2308L18.5346 21.2308Z" id="Shape" fill="none" fill-rule="evenodd" stroke="none" />
      <path d="M0.801828 8.59839L0.801828 19.3079C1.16864 20.455 1.69242 21.5458 2.35828 22.5493L2.35828 5.39506C1.69434 6.38602 1.17057 7.464 0.801826 8.5984L0.801828 8.59839Z" id="Shape" fill="none" fill-rule="evenodd" stroke="none" />
      <path d="M18.5346 12.3232L20.091 12.3232L20.091 16.457L18.5346 16.457L18.5346 12.3232Z" id="Rectangle" fill="none" fill-rule="evenodd" stroke="none" />
      <path d="M16.2907 22.4448L16.2907 27.4426C16.8345 27.3228 17.3665 27.1548 17.8805 26.9404L17.8805 21.7332C17.3876 22.0458 16.8521 22.2854 16.2907 22.4448L16.2907 22.4448Z" id="Shape" fill="none" fill-rule="evenodd" stroke="none" />
      <path d="M15.6331 5.15484L15.6331 0.0975754C15.1318 0.0483911 14.6129 0.0158659 14.0767 0L14.0767 4.97873C14.5993 4.99585 15.1198 5.05474 15.6331 5.15484L15.6331 5.15484Z" id="Shape" fill="none" fill-rule="evenodd" stroke="none" />
      <path d="M7.44003 19.6722L7.44003 26.7095C7.94697 26.9182 8.46687 27.0939 8.99648 27.2355L8.99648 21.419C8.3703 20.9421 7.84185 20.349 7.44003 19.6722L7.44003 19.6722Z" id="Shape" fill="none" fill-rule="evenodd" stroke="none" />
      <path d="M24.5128 9.47906L24.5128 4.65027C24.0642 4.02618 23.5416 3.4588 22.9564 2.96056L22.9564 9.47906L24.5128 9.47906Z" id="Shape" fill="none" fill-rule="evenodd" stroke="none" />
      <path d="M17.8805 5.99297L17.8805 0.476393C17.3744 0.351052 16.8444 0.251097 16.2907 0.176527L16.2907 5.3147C16.8469 5.4735 17.381 5.70136 17.8805 5.99297L17.8805 5.99297Z" id="Shape" fill="none" fill-rule="evenodd" stroke="none" />
      <path d="M20.091 8.31537L20.091 1.18999C19.5843 0.973485 19.0644 0.789076 18.5346 0.637851L18.5346 6.44716C19.1823 6.95009 19.7133 7.58747 20.091 8.31537L20.091 8.31537Z" id="Shape" fill="none" fill-rule="evenodd" stroke="none" />
      <path d="M22.3043 9.47898L22.3043 2.44641C21.8114 2.09193 21.2909 1.77758 20.7478 1.50637L20.7478 9.47899L22.3043 9.47898Z" id="Shape" fill="none" fill-rule="evenodd" stroke="none" />
      <path d="M6.10493 13.877C6.07466 12.3773 6.30413 10.8837 6.78319 9.46228L6.78319 1.51107C6.24198 1.78889 5.72249 2.10711 5.22913 2.46303L5.22913 25.5075C5.72266 25.8506 6.24226 26.1545 6.78319 26.4166L6.78319 18.2917C6.30413 16.8702 6.07466 15.3766 6.10493 13.877L6.10493 13.877Z" id="Shape" fill="none" fill-rule="evenodd" stroke="none" />
      <path d="M3.01508 4.52184L3.01508 23.4419C3.48186 24.0074 4.00319 24.5256 4.57153 24.9889L4.57153 2.9535C4.00425 3.42584 3.48309 3.95098 3.01509 4.52184L3.01508 4.52184Z" id="Shape" fill="none" fill-rule="evenodd" stroke="none" />
      <path d="M1.05113e-05 13.8771C-0.000777507 14.6816 0.0476529 15.4867 0.145028 16.2866L0.145028 11.5268C0.047544 12.3064 -0.000888265 13.0914 1.2327e-05 13.877L1.05113e-05 13.8771Z" id="Shape" fill="none" fill-rule="evenodd" stroke="none" />
      <path d="M26.086 9.47907C26.0844 8.17434 25.771 6.8892 25.172 5.73046L25.172 9.47907L26.086 9.47907Z" id="Shape" fill="none" fill-rule="evenodd" stroke="none" />
      <path d="M13.4206 4.97873L13.4206 0C12.8828 0.0111061 12.3647 0.0412514 11.8665 0.0904357L11.8665 5.12628C12.3798 5.03532 12.8995 4.98598 13.4206 4.97872L13.4206 4.97873Z" id="Shape" fill="none" fill-rule="evenodd" stroke="none" />
      <path d="M11.2097 5.27631L11.2097 0.169074C10.6859 0.243901 10.1663 0.34638 9.65329 0.476078L9.65329 5.90698C10.1439 5.63294 10.6667 5.42108 11.2097 5.27631L11.2097 5.27631Z" id="Shape" fill="none" fill-rule="evenodd" stroke="none" />
      <path d="M8.99648 6.3404L8.99648 0.642951C8.46692 0.798946 7.94718 0.986499 7.44003 1.2046L7.44003 8.092C7.84135 7.41346 8.36983 6.81872 8.99648 6.3404L8.99648 6.3404Z" id="Shape" fill="none" fill-rule="evenodd" stroke="none" />
      <path d="M0.145145 11.5305L0.145145 16.2903C0.269802 17.3121 0.489708 18.32 0.801994 19.3009L0.801994 8.59138C0.490682 9.54815 0.27075 10.5323 0.145147 11.5305L0.145145 11.5305Z" id="Shape" fill="#000000" fill-rule="evenodd" stroke="none" />
      <path d="M2.35919 5.39526L2.35919 22.5495C2.56624 22.8589 2.78281 23.1564 3.01604 23.4419L3.01604 4.52184C2.78519 4.80029 2.56386 5.09301 2.35919 5.39526L2.35919 5.39526Z" id="Shape" fill="#000000" fill-rule="evenodd" stroke="none" />
      <path d="M4.57166 2.9535L4.57166 24.9889C4.78347 25.1626 5.00004 25.3316 5.22851 25.491L5.22851 2.45373C5.00321 2.61397 4.78426 2.78057 4.57166 2.9535L4.57166 2.9535Z" id="Shape" fill="#E53E51" fill-rule="evenodd" stroke="none" />
      <path d="M6.78257 18.2914L6.78257 26.4163C6.99914 26.521 7.21571 26.621 7.43941 26.7138L7.43941 19.6717C7.17661 19.2338 6.95665 18.7715 6.78257 18.2914L6.78257 18.2914Z" id="Shape" fill="#E53E51" fill-rule="evenodd" stroke="none" />
      <path d="M7.43941 8.0917L7.43941 1.20431C7.21808 1.30188 6.99676 1.40422 6.78257 1.51131L6.78257 9.46252C6.95721 8.98564 7.17717 8.5266 7.43942 8.0917L7.43941 8.0917Z" id="Shape" fill="#E53E51" fill-rule="evenodd" stroke="none" />
      <path d="M9.65346 5.90674L9.65346 0.475839C9.43213 0.528196 9.21318 0.587694 8.99661 0.65195L8.99661 6.33988C9.20607 6.18161 9.42547 6.03693 9.65345 5.90674L9.65346 5.90674Z" id="Shape" fill="#000000" fill-rule="evenodd" stroke="none" />
      <path d="M11.8659 5.12646L11.8659 0.0906173C11.6446 0.114416 11.4233 0.138215 11.2091 0.169154L11.2091 5.27639C11.4233 5.21928 11.6398 5.16692 11.8659 5.12646L11.8659 5.12646Z" id="Shape" fill="#000000" fill-rule="evenodd" stroke="none" />
      <path d="M13.6865 4.96683C13.8198 4.96683 13.9483 4.96683 14.0768 4.97873L14.0768 0C13.9483 0 13.8198 0 13.6865 0L13.42 0L13.42 4.97397C13.5104 4.97635 13.5961 4.96683 13.6865 4.96683L13.6865 4.96683Z" id="Shape" fill="#000000" fill-rule="evenodd" stroke="none" />
      <path d="M16.2901 5.314L16.2901 0.175822C16.0743 0.144091 15.8554 0.117912 15.6332 0.0972861L15.6332 5.15455C15.8593 5.19977 16.0783 5.25212 16.2901 5.314L16.2901 5.314Z" id="Shape" fill="#000000" fill-rule="evenodd" stroke="none" />
      <path d="M18.5347 6.44703L18.5347 0.647243C18.3205 0.582986 18.104 0.525869 17.8802 0.471131L17.8802 5.99247C18.1084 6.1291 18.327 6.28096 18.5347 6.44703L18.5347 6.44703Z" id="Shape" fill="#000000" fill-rule="evenodd" stroke="none" />
      <path d="M20.5497 9.47894L20.7472 9.47894L20.7472 1.50632C20.5362 1.39843 20.3172 1.29292 20.0904 1.18979L20.0904 8.30566C20.285 8.67921 20.439 9.07255 20.5497 9.47895L20.5497 9.47894Z" id="Shape" fill="#000000" fill-rule="evenodd" stroke="none" />
      <path d="M22.9613 9.47924L22.9613 2.96072C22.7518 2.78302 22.5329 2.61167 22.3044 2.44667L22.3044 9.47924L22.9613 9.47924Z" id="Shape" fill="#000000" fill-rule="evenodd" stroke="none" />
      <path d="M25.1714 9.47853L25.1714 5.7302C24.978 5.35463 24.7577 4.99353 24.5122 4.64972L24.5122 9.47853L25.1714 9.47853Z" id="Shape" fill="#000000" fill-rule="evenodd" stroke="none" />
      <path d="M15.4839 12.8775L15.4839 17.0089L21.6574 17.0089C21.3218 20.9572 19.2346 23.3442 14.7557 23.3442C12.1378 23.3442 10.2101 22.4922 8.94875 20.8763L8.94875 27.4352C10.6176 28.0394 12.3812 28.3393 14.1559 28.3206C18.6777 28.3206 21.2813 26.8069 22.5332 23.9249L22.6545 24.7745L23.1019 27.9445L27.4619 27.9445L27.4619 12.8775L15.4839 12.8775Z" id="Shape" fill="#00AFAA" fill-rule="evenodd" stroke="none" />
    </g>
  </g>
</svg>